<svg id="Слой_1" data-name="Слой 1" xmlns="http://www.w3.org/2000/svg" viewBox="0 0 511.48 167.31"><defs><style>.cls-1{fill:#fff;}</style></defs><path d="M818.74,1279.05a22.6,22.6,0,0,1-22.61,22.6H329.87a22.61,22.61,0,0,1-22.61-22.6V1157a22.61,22.61,0,0,1,22.61-22.61H796.13a22.6,22.6,0,0,1,22.61,22.6Z" transform="translate(-307.26 -1134.35)"/><path class="cls-1" d="M395.6,1163H353.93a9,9,0,0,0-9,9v92.3a9,9,0,0,0,9,9h41.66a9,9,0,0,0,9.05-9V1172A9,9,0,0,0,395.6,1163ZM374.77,1266.7a6,6,0,1,1,6-6A6,6,0,0,1,374.77,1266.7Zm22.77-15H352v-68.09h45.55Z" transform="translate(-307.26 -1134.35)"/><path class="cls-1" d="M438.76,1179.4l-2.53,7.68H433l8.28-24.39h3.8l8.32,24.39H450l-2.6-7.67h-8.65Zm8-2.45-2.42-7c-.51-1.59-.87-3-1.23-4.45H443c-.33,1.41-.72,2.92-1.2,4.41l-2.39,7.06Z" transform="translate(-307.26 -1134.35)"/><path class="cls-1" d="M456.64,1169.57l3.44,9.81c.58,1.63,1.05,3.07,1.41,4.51h.11c.4-1.45.9-2.89,1.48-4.51l3.4-9.81h3.33l-6.88,17.51h-3l-6.65-17.51Z" transform="translate(-307.26 -1134.35)"/><path class="cls-1" d="M484.46,1182.89a28,28,0,0,0,.26,4.19h-2.86l-.29-2.21h-.11a6.45,6.45,0,0,1-5.35,2.6,5,5,0,0,1-5.35-5c0-4.24,3.76-6.55,10.53-6.51v-.36c0-1.45-.4-4.09-4-4a8.48,8.48,0,0,0-4.6,1.3l-.73-2.14a11.39,11.39,0,0,1,5.79-1.52c5.39,0,6.69,3.65,6.69,7.17v6.56Zm-3.11-4.74c-3.47-.07-7.41.54-7.41,3.95a2.79,2.79,0,0,0,3,3,4.43,4.43,0,0,0,4.31-2.93,3.24,3.24,0,0,0,.14-1Z" transform="translate(-307.26 -1134.35)"/><path class="cls-1" d="M490.9,1166.35a2,2,0,0,1,.07-4.08,2,2,0,0,1,2,2,2,2,0,0,1-2.06,2.06Zm-1.52,20.73v-17.51h3.18v17.51Z" transform="translate(-307.26 -1134.35)"/><path class="cls-1" d="M497.66,1161.4h3.18v25.69h-3.18Z" transform="translate(-307.26 -1134.35)"/><path class="cls-1" d="M518.28,1182.89a29.5,29.5,0,0,0,.25,4.19h-2.86l-.29-2.21h-.11a6.46,6.46,0,0,1-5.36,2.6,5,5,0,0,1-5.35-5c0-4.24,3.76-6.55,10.53-6.51v-.36c0-1.45-.4-4.09-4-4a8.45,8.45,0,0,0-4.59,1.3l-.73-2.14a11.39,11.39,0,0,1,5.79-1.52c5.39,0,6.69,3.65,6.69,7.17v6.56Zm-3.11-4.74c-3.47-.07-7.42.54-7.42,3.95a2.79,2.79,0,0,0,3,3,4.43,4.43,0,0,0,4.31-2.93,3.26,3.26,0,0,0,.15-1v-3Z" transform="translate(-307.26 -1134.35)"/><path class="cls-1" d="M523.2,1161.4h3.18v11h.07a6.47,6.47,0,0,1,6-3.18c4.34,0,7.38,3.62,7.38,8.9,0,6.29-4,9.41-7.89,9.41a6.28,6.28,0,0,1-5.86-3.29H526l-.18,2.89H523c.11-1.2.14-3,.14-4.52V1161.4Zm3.18,18.67a6.34,6.34,0,0,0,.11,1.16,5,5,0,0,0,4.77,3.73c3.37,0,5.32-2.71,5.32-6.73,0-3.55-1.81-6.55-5.21-6.55a5,5,0,0,0-4.81,3.9,4.94,4.94,0,0,0-.18,1.34Z" transform="translate(-307.26 -1134.35)"/><path class="cls-1" d="M543.61,1161.4h3.18v25.69h-3.18Z" transform="translate(-307.26 -1134.35)"/><path class="cls-1" d="M553.7,1178.87c.07,4.31,2.78,6.08,6,6.08a12.09,12.09,0,0,0,4.85-.87l.58,2.24a14.22,14.22,0,0,1-5.86,1.11c-5.35,0-8.61-3.57-8.61-8.82s3.15-9.49,8.25-9.49c5.71,0,7.2,5,7.2,8.26a8.26,8.26,0,0,1-.11,1.51Zm9.29-2.29c0-2-.83-5.18-4.38-5.18-3.25,0-4.63,3-4.88,5.18Z" transform="translate(-307.26 -1134.35)"/><path class="cls-1" d="M584.45,1187.48c-4.7,0-8.39-3.47-8.39-9,0-5.85,3.87-9.29,8.68-9.29,5,0,8.43,3.65,8.43,9,0,6.51-4.52,9.34-8.68,9.34Zm.1-2.4c3,0,5.32-2.85,5.32-6.84,0-3-1.48-6.69-5.24-6.69s-5.35,3.47-5.35,6.8c0,3.84,2.17,6.73,5.25,6.73Z" transform="translate(-307.26 -1134.35)"/><path class="cls-1" d="M597,1174.3c0-1.85,0-3.29-.15-4.73h2.82l.18,2.85h.07a6.49,6.49,0,0,1,5.79-3.25c2.42,0,6.19,1.45,6.19,7.45v10.46h-3.19V1177c0-2.83-1.05-5.21-4.05-5.21a4.59,4.59,0,0,0-4.27,3.26,4.91,4.91,0,0,0-.22,1.49v10.56H597Z" transform="translate(-307.26 -1134.35)"/><path class="cls-1" d="M628.22,1165.38v4.19h4.55V1172h-4.55v9.44c0,2.17.62,3.4,2.38,3.4a5.8,5.8,0,0,0,1.85-.22l.14,2.42a8.58,8.58,0,0,1-2.82.43,4.55,4.55,0,0,1-3.44-1.34c-.87-1-1.23-2.54-1.23-4.6V1172h-2.71v-2.42h2.71v-3.22Z" transform="translate(-307.26 -1134.35)"/><path class="cls-1" d="M636.18,1161.4h3.18v10.92h.07a5.65,5.65,0,0,1,2.28-2.24,6.19,6.19,0,0,1,3.26-.91c2.35,0,6.11,1.45,6.11,7.49v10.42H647.9V1177c0-2.85-1-5.2-4-5.2a4.63,4.63,0,0,0-4.27,3.17,3.87,3.87,0,0,0-.22,1.52v10.56h-3.18V1161.4Z" transform="translate(-307.26 -1134.35)"/><path class="cls-1" d="M657.88,1178.87c.07,4.31,2.79,6.08,6,6.08a12.09,12.09,0,0,0,4.85-.87l.58,2.24a14.26,14.26,0,0,1-5.86,1.11c-5.35,0-8.61-3.57-8.61-8.82s3.15-9.49,8.25-9.49c5.71,0,7.2,5,7.2,8.26a8.26,8.26,0,0,1-.11,1.51Zm9.3-2.29c0-2-.83-5.18-4.38-5.18-3.25,0-4.63,3-4.88,5.18Z" transform="translate(-307.26 -1134.35)"/><path class="cls-1" d="M683,1166.35a2,2,0,0,1,.07-4.08,2,2,0,0,1,2,2,2,2,0,0,1-2.07,2.06Zm-1.53,20.73v-17.51h3.18v17.51Z" transform="translate(-307.26 -1134.35)"/><path class="cls-1" d="M689.89,1163a32.34,32.34,0,0,1,6-.51c3.11,0,5.39.72,6.83,2a6.56,6.56,0,0,1,2.17,5.1,7,7,0,0,1-1.92,5.21c-1.66,1.77-4.38,2.67-7.45,2.67a12.13,12.13,0,0,1-2.53-.2v9.76h-3.15V1163Zm3.15,11.72a10.83,10.83,0,0,0,2.61.25c3.83,0,6.11-1.88,6.11-5.17S699.48,1165,696,1165a16,16,0,0,0-3,.25v9.48Z" transform="translate(-307.26 -1134.35)"/><path class="cls-1" d="M708.67,1161.4h3.19v10.92h.07a5.65,5.65,0,0,1,2.28-2.24,6.22,6.22,0,0,1,3.26-.91c2.35,0,6.11,1.45,6.11,7.49v10.42H720.4V1177c0-2.85-1-5.2-4-5.2a4.63,4.63,0,0,0-4.27,3.17,3.87,3.87,0,0,0-.22,1.52v10.56h-3.19V1161.4Z" transform="translate(-307.26 -1134.35)"/><path class="cls-1" d="M735.7,1187.48c-4.7,0-8.39-3.47-8.39-9,0-5.85,3.87-9.29,8.69-9.29,5,0,8.43,3.65,8.43,9,0,6.51-4.52,9.34-8.68,9.34Zm.11-2.4c3,0,5.32-2.85,5.32-6.84,0-3-1.48-6.69-5.25-6.69s-5.36,3.47-5.36,6.8c0,3.84,2.17,6.73,5.25,6.73Z" transform="translate(-307.26 -1134.35)"/><path class="cls-1" d="M748.25,1174.3c0-1.85,0-3.29-.14-4.73h2.82l.18,2.85h.07a6.49,6.49,0,0,1,5.79-3.25c2.42,0,6.18,1.45,6.18,7.45v10.46H760V1177c0-2.83-1.05-5.21-4.05-5.21a4.68,4.68,0,0,0-4.49,4.75v10.56h-3.18V1174.3Z" transform="translate(-307.26 -1134.35)"/><path class="cls-1" d="M770,1178.87c.07,4.31,2.79,6.08,6,6.08a12.09,12.09,0,0,0,4.85-.87l.58,2.24a14.26,14.26,0,0,1-5.86,1.11c-5.35,0-8.61-3.57-8.61-8.82s3.15-9.49,8.25-9.49c5.72,0,7.2,5,7.2,8.26a8.26,8.26,0,0,1-.11,1.51Zm9.29-2.29c0-2-.83-5.18-4.38-5.18-3.26,0-4.63,3-4.88,5.18Z" transform="translate(-307.26 -1134.35)"/><path class="cls-1" d="M453.75,1203.6l-21.45,63.14h9.82l6.4-19.39h20.77l6.59,19.39H486l-21.54-63.14Zm5.09,10.38c.72,2.82,1.51,5.75,2.51,8.91l5.78,16.74H450.68l5.7-16.85C457.25,1220.05,458.07,1217.1,458.84,1214Z" transform="translate(-307.26 -1134.35)"/><path class="cls-1" d="M513.74,1220c-6.51,0-11.72,2.52-15.19,7.3l-.38-6.28h-8.74l.05.79c.26,3.91.37,8.22.37,14.41v48.67h9.55v-22.72a16.76,16.76,0,0,0,13.06,5.61,19.74,19.74,0,0,0,14.48-6.15c4.18-4.42,6.39-10.78,6.39-18.38,0-6.71-1.92-12.51-5.55-16.78A18.22,18.22,0,0,0,513.74,1220Zm-2.38,7.92c8.52,0,12.33,7.88,12.33,15.7,0,10.09-4.86,16.35-12.69,16.35a11.58,11.58,0,0,1-11.25-8.86,12.22,12.22,0,0,1-.34-3.09v-7.68a14.19,14.19,0,0,1,.31-2.36c0-.26.1-.52.14-.78A12.05,12.05,0,0,1,511.36,1227.88Z" transform="translate(-307.26 -1134.35)"/><path class="cls-1" d="M562.93,1220c-6.51,0-11.72,2.52-15.19,7.3l-.38-6.28h-8.74l0,.79c.26,3.93.37,8.22.37,14.41v48.67h9.56v-22.72a16.74,16.74,0,0,0,13,5.61,19.72,19.72,0,0,0,14.48-6.15c4.18-4.42,6.39-10.78,6.39-18.38,0-6.71-1.92-12.51-5.55-16.78A18.2,18.2,0,0,0,562.93,1220Zm-2.37,7.92c8.51,0,12.32,7.88,12.32,15.7,0,10.09-4.87,16.35-12.69,16.35a11.58,11.58,0,0,1-11.25-8.86,12.22,12.22,0,0,1-.34-3.09v-7.68a14.22,14.22,0,0,1,.3-2.37c.05-.26.09-.51.14-.77A12.08,12.08,0,0,1,560.56,1227.88Z" transform="translate(-307.26 -1134.35)"/><path class="cls-1" d="M624.56,1230.35c-8.92-3.46-11.77-6.18-11.77-11.2,0-4.22,3.36-8.48,10.86-8.48a21.71,21.71,0,0,1,11.21,2.81l.81.5,2.7-8-.53-.31c-1.6-.94-6.16-3.12-13.91-3.12-12.18,0-20.69,7.19-20.69,17.49,0,8.3,5.33,14.11,16.77,18.26,8.11,3,11.12,6.15,11.12,11.47,0,6-4.65,9.76-12.14,9.76a26.06,26.06,0,0,1-13.77-3.91l-.83-.53-2.56,8.16.47.31c3.61,2.41,10.39,4.15,16.14,4.15,16.42,0,22.24-10,22.24-18.59C640.68,1240.32,636,1234.87,624.56,1230.35Z" transform="translate(-307.26 -1134.35)"/><path class="cls-1" d="M657.88,1210.1l-9.37,2.94V1221h-6.86v7.64h6.86V1252c0,5.65,1.08,9.62,3.31,12.12a12.24,12.24,0,0,0,9.24,3.63,22.34,22.34,0,0,0,7.38-1.14l.54-.19-.46-7.66-.92.29a14.45,14.45,0,0,1-4.44.51c-3.7,0-5.28-2.34-5.28-7.84v-23.11H669.4V1221H657.88Z" transform="translate(-307.26 -1134.35)"/><path class="cls-1" d="M693.08,1220c-13.37,0-22.7,10-22.7,24.25,0,13.85,9,23.53,22,23.53h.09c10.94,0,22.7-7.62,22.7-24.35,0-6.8-2.1-12.64-6.09-16.9A21.3,21.3,0,0,0,693.08,1220Zm-.28,7.55c8.6,0,12.51,8.37,12.51,16.17,0,9.58-5.34,16.53-12.69,16.53h-.09c-7.25,0-12.51-6.83-12.51-16.25C680,1235.76,684,1227.51,692.8,1227.51Z" transform="translate(-307.26 -1134.35)"/><path class="cls-1" d="M744.4,1220.4l-.57-.14a9.19,9.19,0,0,0-2.38-.3,13.63,13.63,0,0,0-12,7.69l-.28-6.69h-8.57l0,.8c.25,3.78.36,8,.36,13.75l-.09,31.22h9.55v-24.35a24.88,24.88,0,0,1,.26-3.7c1.08-5.85,5-9.63,10-9.63a21.81,21.81,0,0,1,2.56.16l1,.11v-8.92Z" transform="translate(-307.26 -1134.35)"/><path class="cls-1" d="M765.88,1219.88c-12.72,0-21.6,10.16-21.6,24.7,0,14,8.84,23.07,22.52,23.07a36.74,36.74,0,0,0,15.13-2.9l.57-.26-1.83-7.12-.8.32a29.55,29.55,0,0,1-12,2.14c-4.15,0-13.72-1.37-14.31-13.84l30.84.09.12-.61a20.74,20.74,0,0,0,.29-4C784.83,1231.52,779.87,1219.88,765.88,1219.88Zm-.64,7.27a9.4,9.4,0,0,1,7,2.68c2.75,2.8,3.23,6.92,3.29,8.88H753.75C754.64,1233.19,758.09,1227.15,765.24,1227.15Z" transform="translate(-307.26 -1134.35)"/></svg>