<svg id="Слой_1" data-name="Слой 1" xmlns="http://www.w3.org/2000/svg" xmlns:xlink="http://www.w3.org/1999/xlink" viewBox="0 0 379.58 112.48"><defs><style>.cls-1{fill:#a6a6a6;}.cls-10,.cls-2,.cls-3{fill:#fff;}.cls-2{stroke:#fff;stroke-miterlimit:10;stroke-width:0.2px;}.cls-4{fill:url(#Безымянный_градиент_5);}.cls-5{fill:url(#Безымянный_градиент_2);}.cls-6{fill:url(#Безымянный_градиент_3);}.cls-7{fill:url(#Безымянный_градиент_4);}.cls-8{opacity:0.2;}.cls-10,.cls-8,.cls-9{isolation:isolate;}.cls-9{opacity:0.12;}.cls-10{opacity:0.25;}</style><linearGradient id="Безымянный_градиент_5" x1="439.5" y1="3114.25" x2="392.31" y2="3161.44" gradientTransform="translate(0 -1922)" gradientUnits="userSpaceOnUse"><stop offset="0" stop-color="#00a0ff"/><stop offset="0.01" stop-color="#00a1ff"/><stop offset="0.26" stop-color="#00beff"/><stop offset="0.51" stop-color="#00d2ff"/><stop offset="0.76" stop-color="#00dfff"/><stop offset="1" stop-color="#00e3ff"/></linearGradient><linearGradient id="Безымянный_градиент_2" x1="473.34" y1="3146.01" x2="405.31" y2="3146.01" gradientTransform="translate(0 -1922)" gradientUnits="userSpaceOnUse"><stop offset="0" stop-color="#ffe000"/><stop offset="0.41" stop-color="#ffbd00"/><stop offset="0.78" stop-color="orange"/><stop offset="1" stop-color="#ff9c00"/></linearGradient><linearGradient id="Безымянный_градиент_3" x1="448.01" y1="3152.46" x2="384.03" y2="3216.44" gradientTransform="translate(0 -1922)" gradientUnits="userSpaceOnUse"><stop offset="0" stop-color="#ff3a44"/><stop offset="1" stop-color="#c31162"/></linearGradient><linearGradient id="Безымянный_градиент_4" x1="398.73" y1="3090.26" x2="427.3" y2="3118.84" gradientTransform="translate(0 -1922)" gradientUnits="userSpaceOnUse"><stop offset="0" stop-color="#32a071"/><stop offset="0.07" stop-color="#2da771"/><stop offset="0.48" stop-color="#15cf74"/><stop offset="0.8" stop-color="#06e775"/><stop offset="1" stop-color="#00f076"/></linearGradient></defs><path d="M743.73,1280.23H392.26a14.11,14.11,0,0,1-14.06-14.06v-84.35a14.11,14.11,0,0,1,14.06-14.06H743.72a14.11,14.11,0,0,1,14.06,14.06v84.35A14.09,14.09,0,0,1,743.73,1280.23Z" transform="translate(-378.2 -1167.76)"/><path class="cls-1" d="M743.73,1170a11.83,11.83,0,0,1,11.81,11.81v84.35A11.83,11.83,0,0,1,743.73,1278H392.26a11.83,11.83,0,0,1-11.81-11.81v-84.35A11.83,11.83,0,0,1,392.26,1170H743.73m0-2.25H392.26a14.11,14.11,0,0,0-14.06,14.06v84.35a14.11,14.11,0,0,0,14.06,14.06H743.72a14.11,14.11,0,0,0,14.06-14.06v-84.35a14.09,14.09,0,0,0-14-14.06Z" transform="translate(-378.2 -1167.76)"/><path class="cls-2" d="M511.53,1196.57a7.6,7.6,0,0,1-2.1,5.63,8.2,8.2,0,0,1-6.2,2.5,8.81,8.81,0,1,1,0-17.62,8.71,8.71,0,0,1,3.46.71,6.9,6.9,0,0,1,2.64,1.88l-1.48,1.48a5.7,5.7,0,0,0-4.61-2,6.74,6.74,0,1,0,4.71,11.6,5.27,5.27,0,0,0,1.41-3.42h-6.13v-2h8.17A6.3,6.3,0,0,1,511.53,1196.57Z" transform="translate(-378.2 -1167.76)"/><path class="cls-2" d="M524.49,1189.52h-7.67v5.35h6.92v2h-6.92v5.35h7.67v2.07h-9.85v-16.87h9.85Z" transform="translate(-378.2 -1167.76)"/><path class="cls-2" d="M533.63,1204.32h-2.16v-14.8h-4.72v-2.07h11.59v2.07h-4.71v14.8Z" transform="translate(-378.2 -1167.76)"/><path class="cls-2" d="M546.74,1204.32v-16.87h2.17v16.87Z" transform="translate(-378.2 -1167.76)"/><path class="cls-2" d="M558.52,1204.32h-2.17v-14.8h-4.72v-2.07h11.59v2.07h-4.71v14.8Z" transform="translate(-378.2 -1167.76)"/><path class="cls-2" d="M585.17,1202.14a8.75,8.75,0,0,1-12.37,0,9.12,9.12,0,0,1,0-12.5,8.73,8.73,0,0,1,12.36,0,9.06,9.06,0,0,1,0,12.49Zm-10.76-1.41a6.21,6.21,0,0,0,4.57,1.9,6.15,6.15,0,0,0,4.58-1.9,7.17,7.17,0,0,0,0-9.68,6.22,6.22,0,0,0-4.58-1.9,6.14,6.14,0,0,0-4.57,1.9,7.2,7.2,0,0,0,0,9.68Z" transform="translate(-378.2 -1167.76)"/><path class="cls-2" d="M590.7,1204.32v-16.87h2.64l8.2,13.12h.09l-.09-3.25v-9.87h2.17v16.87h-2.26l-8.58-13.76h-.09l.09,3.25v10.51Z" transform="translate(-378.2 -1167.76)"/><path class="cls-3" d="M569.79,1228.92a12,12,0,1,0,12,12A11.79,11.79,0,0,0,569.79,1228.92Zm0,19.21a7.27,7.27,0,1,1,6.75-7.25A6.92,6.92,0,0,1,569.79,1248.13Zm-26.19-19.21a12,12,0,1,0,12,12A11.79,11.79,0,0,0,543.6,1228.92Zm0,19.21a7.27,7.27,0,1,1,6.75-7.25A6.92,6.92,0,0,1,543.6,1248.13Zm-31.16-15.54v5.07h12.14a10.64,10.64,0,0,1-2.75,6.39,12.45,12.45,0,0,1-9.39,3.71,13.5,13.5,0,0,1,0-27,13,13,0,0,1,9.15,3.62l3.58-3.58a17.71,17.71,0,0,0-12.73-5.12,18.57,18.57,0,1,0,0,37.14c5.53,0,9.69-1.81,12.95-5.21s4.39-8.06,4.39-11.87a16.66,16.66,0,0,0-.27-3.17H512.44Zm127.39,3.94c-1-2.67-4-7.61-10.23-7.61s-11.28,4.85-11.28,12a11.7,11.7,0,0,0,11.87,12,11.93,11.93,0,0,0,10-5.3l-4.08-2.72a6.85,6.85,0,0,1-5.89,3.31,6.07,6.07,0,0,1-5.8-3.62l16-6.61Zm-16.29,4a6.55,6.55,0,0,1,6.25-7,4.64,4.64,0,0,1,4.44,2.54Zm-13,11.6h5.25V1217h-5.25Zm-8.62-20.52h-.18a8.28,8.28,0,0,0-6.29-2.67c-6,0-11.46,5.25-11.46,12a11.84,11.84,0,0,0,11.46,11.91,8.13,8.13,0,0,0,6.29-2.72h.18v1.72c0,4.58-2.45,7-6.39,7a6.6,6.6,0,0,1-6-4.26l-4.57,1.9a11.37,11.37,0,0,0,10.6,7.07c6.16,0,11.37-3.62,11.37-12.46v-21.47h-5Zm-6,16.53a6.87,6.87,0,0,1-6.67-7.2c0-4.21,3-7.29,6.67-7.29s6.39,3.08,6.39,7.29S599.48,1248.13,595.91,1248.13ZM664.45,1217H651.88v35.15h5.25V1238.8h7.33c5.82,0,11.53-4.21,11.53-10.92S670.26,1217,664.45,1217Zm.13,16.94h-7.45v-12.05h7.45a6,6,0,1,1,0,12.05Zm32.43-5.05c-3.8,0-7.74,1.67-9.36,5.38l4.66,1.94a5,5,0,0,1,4.79-2.58c2.71,0,5.47,1.63,5.52,4.52v.36a11.61,11.61,0,0,0-5.47-1.36c-5,0-10.13,2.76-10.13,7.91,0,4.7,4.11,7.73,8.73,7.73a7.38,7.38,0,0,0,6.69-3.44h.18V1252h5.06v-13.48C707.69,1232.34,703,1228.86,697,1228.86Zm-.63,19.26c-1.72,0-4.12-.86-4.12-3,0-2.71,3-3.75,5.56-3.75a9.3,9.3,0,0,1,4.79,1.18A6.33,6.33,0,0,1,696.38,1248.12Zm29.76-18.49-6,15.24H720l-6.24-15.24h-5.65l9.36,21.3-5.34,11.85h5.47L732,1229.63Zm-47.26,22.49h5.25V1217h-5.25Z" transform="translate(-378.2 -1167.76)"/><path class="cls-4" d="M407.55,1189a5.63,5.63,0,0,0-1.31,4v62.18a5.63,5.63,0,0,0,1.31,4l.21.2,34.82-34.83v-.82l-34.83-34.83Z" transform="translate(-378.2 -1167.76)"/><path class="cls-5" d="M454.21,1236l-11.61-11.62v-.82L454.21,1212l.26.15,13.75,7.82c3.93,2.23,3.93,5.89,0,8.12l-13.75,7.82Z" transform="translate(-378.2 -1167.76)"/><path class="cls-6" d="M454.47,1235.88,442.6,1224l-35,35c1.3,1.37,3.43,1.54,5.84.17l41.07-23.33" transform="translate(-378.2 -1167.76)"/><path class="cls-7" d="M454.47,1212.13l-41.07-23.34c-2.42-1.37-4.56-1.2-5.85.17l35.05,35Z" transform="translate(-378.2 -1167.76)"/><path class="cls-8" d="M454.21,1235.62l-40.81,23.19c-2.28,1.3-4.32,1.21-5.63,0h0l-.21.21h0l.21.2h0c1.31,1.18,3.35,1.27,5.63,0l41.07-23.34Z" transform="translate(-378.2 -1167.76)"/><path class="cls-9" d="M407.55,1258.63a5.63,5.63,0,0,1-1.31-4v.41a5.63,5.63,0,0,0,1.31,4l.21-.21Z" transform="translate(-378.2 -1167.76)"/><path class="cls-9" d="M468.22,1227.65l-14,8,.26.26,13.76-7.82c2-1.12,2.95-2.59,2.95-4.06h0A5.26,5.26,0,0,1,468.22,1227.65Z" transform="translate(-378.2 -1167.76)"/><path class="cls-10" d="M413.4,1189.2l54.83,31.15a5.26,5.26,0,0,1,2.95,3.65h0c0-1.47-1-2.94-2.95-4.06l-54.83-31.15c-3.93-2.23-7.14-.38-7.14,4.12v.41C406.24,1188.82,409.47,1187,413.4,1189.2Z" transform="translate(-378.2 -1167.76)"/></svg>