<svg id="Слой_1" data-name="Слой 1" xmlns="http://www.w3.org/2000/svg" xmlns:xlink="http://www.w3.org/1999/xlink" viewBox="0 0 98.56 25.6"><defs><style>.cls-1{fill:none;}.cls-2,.cls-4{font-size:7.36px;font-family:SegoePro;}.cls-2,.cls-4,.cls-9{fill:#fff;}.cls-2{letter-spacing:0em;}.cls-3{letter-spacing:0em;}.cls-5{letter-spacing:0em;}.cls-6{letter-spacing:0em;}.cls-7{fill:#0f8139;}.cls-8{clip-path:url(#clip-path);}.cls-10{fill:#12100b;}</style><clipPath id="clip-path" transform="translate(-513.72 -1205.2)"><polyline class="cls-1" points="612.28 1230.8 612.28 1205.2 513.72 1205.2 513.72 1230.8"/></clipPath></defs><text class="cls-2" transform="translate(26.13 9.98)">D<tspan class="cls-3" x="3.69" y="0">o</tspan></text><text class="cls-4" transform="translate(34.99 9.98)">w</text><text class="cls-4" transform="translate(40.23 9.98)">n</text><text class="cls-4" transform="translate(44.27 9.98)"><tspan class="cls-5">l</tspan><tspan x="3.65" y="0">o</tspan></text><text class="cls-4" transform="translate(50.02 9.98)">a</text><text class="cls-4" transform="translate(53.56 9.98)">d</text><text class="cls-4" transform="translate(57.71 9.98)"> </text><text class="cls-4" transform="translate(59.13 9.98)">f</text><text class="cls-4" transform="translate(61.29 9.98)">r</text><text class="cls-4" transform="translate(63.56 9.98)"><tspan class="cls-6">o</tspan><tspan x="3.66" y="0">m</tspan></text><polyline class="cls-7" points="98.56 25.6 98.56 0 0 0 0 25.6"/><g class="cls-8"><path class="cls-9" d="M526.61,1210a2.54,2.54,0,0,1,0,.52c-.73.32-1,.55-1,1.64v.67l-.51.1v-.77c0-1.61.62-1.86,1.46-2.16m1.46-.35a2.72,2.72,0,0,1,.08.51c1.32-.19,1.3.36,1.3,1.49v.42l.49-.1v-.32c0-1.76-.27-2.23-1.87-2m-5.19,3.73v-2.31c0-1.44.72-1.88,2.1-2.2,2.06-.49,2.19.84,2.19,1.69v2l.5-.11v-1.82c0-1.6-.5-2.8-2.8-2.28-1.23.28-2.49.6-2.49,2.7v2.46Zm6,6.1H525v-2.81l3.88-.57Zm0,4-3.88-.57v-3h3.88Zm-4.27-4h-3.08v-2.35l3.08-.44Zm0,3.38-3.08-.44v-2.55h3.08Zm7.82-10.79-13.88,2.78V1225l13.88,2.78,2.77-1v-13.63Z" transform="translate(-513.72 -1205.2)"/></g><text class="cls-2" transform="translate(26.13 9.98)">D<tspan class="cls-3" x="3.69" y="0">o</tspan></text><text class="cls-4" transform="translate(34.99 9.98)">w</text><text class="cls-4" transform="translate(40.23 9.98)">n</text><text class="cls-4" transform="translate(44.27 9.98)"><tspan class="cls-5">l</tspan><tspan x="3.65" y="0">o</tspan></text><text class="cls-4" transform="translate(50.02 9.98)">a</text><text class="cls-4" transform="translate(53.56 9.98)">d</text><text class="cls-4" transform="translate(57.71 9.98)"> </text><text class="cls-4" transform="translate(59.13 9.98)">f</text><text class="cls-4" transform="translate(61.29 9.98)">r</text><text class="cls-4" transform="translate(63.56 9.98)"><tspan class="cls-6">o</tspan><tspan x="3.66" y="0">m</tspan></text><polyline class="cls-10" points="98.56 25.6 98.56 0 0 0 0 25.6"/><g class="cls-8"><path class="cls-9" d="M526.61,1210a2.54,2.54,0,0,1,0,.52c-.73.32-1,.55-1,1.64v.67l-.51.1v-.77c0-1.61.62-1.86,1.46-2.16m1.46-.35a2.72,2.72,0,0,1,.08.51c1.32-.19,1.3.36,1.3,1.49v.42l.49-.1v-.32c0-1.76-.27-2.23-1.87-2m-5.19,3.73v-2.31c0-1.44.72-1.88,2.1-2.2,2.06-.49,2.19.84,2.19,1.69v2l.5-.11v-1.82c0-1.6-.5-2.8-2.8-2.28-1.23.28-2.49.6-2.49,2.7v2.46Zm6,6.1H525v-2.81l3.88-.57Zm0,4-3.88-.57v-3h3.88Zm-4.27-4h-3.08v-2.35l3.08-.44Zm0,3.38-3.08-.44v-2.55h3.08Zm7.82-10.79-13.88,2.78V1225l13.88,2.78,2.77-1v-13.63Z" transform="translate(-513.72 -1205.2)"/><path class="cls-9" d="M544.66,1212.49a2.68,2.68,0,0,1-.34,1.37,2.34,2.34,0,0,1-1,.91,3.18,3.18,0,0,1-1.44.32h-1.34V1210H542c1.79,0,2.68.82,2.68,2.47m-.62,0c0-1.3-.69-1.94-2.07-1.94h-.79v4h.75a2.18,2.18,0,0,0,1.56-.53,2,2,0,0,0,.55-1.52m4.83.77a1.93,1.93,0,0,1-.49,1.38,1.69,1.69,0,0,1-1.31.53,1.66,1.66,0,0,1-1.28-.51,1.89,1.89,0,0,1-.48-1.35,2,2,0,0,1,.49-1.42,1.77,1.77,0,0,1,1.36-.52,1.65,1.65,0,0,1,1.26.5,2,2,0,0,1,.45,1.39m-.59,0a1.6,1.6,0,0,0-.3-1,1.07,1.07,0,0,0-.87-.37,1.11,1.11,0,0,0-.88.38,1.54,1.54,0,0,0-.33,1,1.49,1.49,0,0,0,.33,1,1.13,1.13,0,0,0,.88.36,1.07,1.07,0,0,0,.87-.36,1.56,1.56,0,0,0,.3-1m6.06-1.82-1.09,3.62h-.6l-.75-2.59a2.27,2.27,0,0,1,0-.34h0a1.22,1.22,0,0,1-.07.33l-.81,2.6h-.58l-1.1-3.62h.61l.75,2.72a2.88,2.88,0,0,1,0,.33h0a1.16,1.16,0,0,1,.06-.33l.84-2.72h.53l.75,2.73a2.4,2.4,0,0,1,.05.32h0a1.13,1.13,0,0,1,0-.32l.74-2.73Zm3.68,3.62h-.58V1213c0-.76-.28-1.15-.84-1.15a.91.91,0,0,0-.72.33,1.19,1.19,0,0,0-.29.82v2.07H555v-3.62h.58v.6h0a1.3,1.3,0,0,1,1.19-.69,1.1,1.1,0,0,1,.91.39,1.71,1.71,0,0,1,.31,1.1Zm1.67,0h-.58v-5.36h.58Zm4.47-1.82a1.93,1.93,0,0,1-.49,1.38,1.73,1.73,0,0,1-1.32.53,1.68,1.68,0,0,1-1.28-.51,1.89,1.89,0,0,1-.48-1.35,2,2,0,0,1,.49-1.42,1.77,1.77,0,0,1,1.36-.52,1.62,1.62,0,0,1,1.26.5,2,2,0,0,1,.46,1.39m-.59,0a1.6,1.6,0,0,0-.31-1,1.07,1.07,0,0,0-.86-.37,1.12,1.12,0,0,0-.89.38,1.59,1.59,0,0,0-.32,1,1.54,1.54,0,0,0,.32,1,1.15,1.15,0,0,0,.89.36,1.06,1.06,0,0,0,.86-.36,1.56,1.56,0,0,0,.31-1m4,1.8H567v-.57h0a1.22,1.22,0,0,1-1.12.66,1.24,1.24,0,0,1-.83-.28,1,1,0,0,1-.32-.77c0-.68.4-1.07,1.2-1.18l1.08-.16c0-.61-.25-.92-.74-.92a1.76,1.76,0,0,0-1.18.45v-.6a1.56,1.56,0,0,1,.54-.23,2.72,2.72,0,0,1,.69-.11c.85,0,1.27.45,1.27,1.35Zm-.58-1.83-.87.12a1.27,1.27,0,0,0-.63.22.59.59,0,0,0-.18.48.55.55,0,0,0,.19.44.75.75,0,0,0,.5.16.93.93,0,0,0,.71-.3,1.07,1.07,0,0,0,.28-.76Zm4.74,1.83h-.58v-.61h0a1.36,1.36,0,0,1-1.25.7,1.33,1.33,0,0,1-1.09-.49,2,2,0,0,1-.41-1.32,2.22,2.22,0,0,1,.45-1.45,1.5,1.5,0,0,1,1.21-.54,1.16,1.16,0,0,1,1.09.59h0v-2.24h.58Zm-.58-1.64v-.53a1,1,0,0,0-.3-.75,1,1,0,0,0-.73-.3,1,1,0,0,0-.83.39,1.73,1.73,0,0,0-.3,1.08,1.49,1.49,0,0,0,.29,1,.94.94,0,0,0,.78.36,1,1,0,0,0,.78-.34,1.27,1.27,0,0,0,.31-.89m5.23-3.21a.7.7,0,0,0-.38-.1c-.41,0-.61.26-.61.77v.56h.85v.49h-.85v3.13h-.58V1212h-.62v-.49h.62v-.59a1.24,1.24,0,0,1,.32-.89,1.1,1.1,0,0,1,.83-.34,1.17,1.17,0,0,1,.42.06Zm2.37,1.82a.7.7,0,0,0-.44-.12.73.73,0,0,0-.63.36,1.68,1.68,0,0,0-.24.94v1.85h-.58v-3.62h.58v.74h0a1.27,1.27,0,0,1,.37-.59.87.87,0,0,1,.57-.22,1,1,0,0,1,.35,0Zm3.83,1.21a1.93,1.93,0,0,1-.49,1.38,1.71,1.71,0,0,1-1.31.53,1.69,1.69,0,0,1-1.29-.51,1.89,1.89,0,0,1-.48-1.35,2,2,0,0,1,.5-1.42,1.75,1.75,0,0,1,1.35-.52,1.62,1.62,0,0,1,1.26.5,2,2,0,0,1,.46,1.39m-.59,0a1.6,1.6,0,0,0-.31-1,1.07,1.07,0,0,0-.86-.37,1.13,1.13,0,0,0-.89.38,1.59,1.59,0,0,0-.32,1,1.49,1.49,0,0,0,.33,1,1.12,1.12,0,0,0,.88.36,1.08,1.08,0,0,0,.87-.36,1.56,1.56,0,0,0,.3-1m6.63,1.8h-.58V1213a1.59,1.59,0,0,0-.18-.87.71.71,0,0,0-.63-.27.79.79,0,0,0-.63.34,1.33,1.33,0,0,0-.26.81v2.07h-.58v-2.15c0-.71-.27-1.07-.82-1.07a.76.76,0,0,0-.63.32,1.32,1.32,0,0,0-.25.83v2.07h-.58v-3.62h.58v.57h0a1.23,1.23,0,0,1,1.13-.66,1.1,1.1,0,0,1,.63.2,1,1,0,0,1,.39.55,1.3,1.3,0,0,1,1.21-.75c.79,0,1.19.49,1.19,1.48Z" transform="translate(-513.72 -1205.2)"/><path class="cls-9" d="M549.87,1218.35l-2.14,7.55h-1l-1.55-5.52a3.78,3.78,0,0,1-.12-.77h0a4.85,4.85,0,0,1-.14.76l-1.57,5.53h-1l-2.21-7.55h1l1.61,5.79a5.26,5.26,0,0,1,.13.76h0a3.34,3.34,0,0,1,.16-.76l1.67-5.79h.86l1.59,5.84a4.59,4.59,0,0,1,.13.7h0a4.46,4.46,0,0,1,.14-.72l1.55-5.82Zm1.71.38a.55.55,0,0,1-.17.41.58.58,0,0,1-.4.16.54.54,0,0,1-.4-.16.58.58,0,0,1,0-.8.54.54,0,0,1,.4-.17.57.57,0,0,1,.41.17.53.53,0,0,1,.16.39m-.15,7.17h-.86v-5.39h.86Zm5.79,0h-.86v-3.07c0-1.14-.42-1.72-1.26-1.72a1.4,1.4,0,0,0-1.07.49,1.81,1.81,0,0,0-.43,1.23v3.07h-.86v-5.39h.86v.89h0a1.93,1.93,0,0,1,1.77-1,1.62,1.62,0,0,1,1.35.58,2.54,2.54,0,0,1,.47,1.64Zm6,0h-.87V1225h0a2.16,2.16,0,0,1-3.48.31,3,3,0,0,1-.61-2,3.26,3.26,0,0,1,.68-2.15,2.19,2.19,0,0,1,1.79-.81,1.74,1.74,0,0,1,1.62.87h0v-3.33h.87Zm-.87-2.44v-.79a1.51,1.51,0,0,0-.44-1.11,1.47,1.47,0,0,0-1.08-.45,1.51,1.51,0,0,0-1.24.58,2.5,2.5,0,0,0-.46,1.6,2.28,2.28,0,0,0,.43,1.47,1.42,1.42,0,0,0,1.17.54,1.46,1.46,0,0,0,1.16-.52,1.88,1.88,0,0,0,.46-1.32m7.25-.27a2.88,2.88,0,0,1-.73,2.06,2.8,2.8,0,0,1-3.87,0,2.81,2.81,0,0,1-.71-2,3,3,0,0,1,.73-2.12,2.67,2.67,0,0,1,2-.77,2.42,2.42,0,0,1,1.88.75,3,3,0,0,1,.68,2.06m-.89,0a2.38,2.38,0,0,0-.45-1.56,1.59,1.59,0,0,0-1.29-.55,1.65,1.65,0,0,0-1.31.56,2.27,2.27,0,0,0-.49,1.57,2.15,2.15,0,0,0,.49,1.51,1.64,1.64,0,0,0,1.31.55,1.57,1.57,0,0,0,1.29-.54,2.34,2.34,0,0,0,.45-1.54m8.75-2.71-1.61,5.39H575l-1.11-3.86a2.09,2.09,0,0,1-.08-.49h0a2,2,0,0,1-.11.48l-1.2,3.87h-.87l-1.63-5.39h.91l1.11,4.06a3,3,0,0,1,.08.48h0a1.77,1.77,0,0,1,.1-.49l1.24-4h.79l1.12,4.07a2.89,2.89,0,0,1,.07.48h0a1.86,1.86,0,0,1,.09-.48l1.1-4.07Zm3.69,4a1.39,1.39,0,0,1-.54,1.14,2.23,2.23,0,0,1-1.44.44,2.66,2.66,0,0,1-1.34-.33v-.93a2.15,2.15,0,0,0,1.4.52c.69,0,1-.25,1-.75a.63.63,0,0,0-.2-.5,3.82,3.82,0,0,0-.91-.52,2.62,2.62,0,0,1-1-.66,1.37,1.37,0,0,1-.3-.93,1.41,1.41,0,0,1,.54-1.12,2.1,2.1,0,0,1,1.37-.44,2.58,2.58,0,0,1,1.15.25v.87a2,2,0,0,0-1.22-.39,1.06,1.06,0,0,0-.69.22.65.65,0,0,0-.26.54.74.74,0,0,0,.2.55,2.77,2.77,0,0,0,.83.45,3,3,0,0,1,1.08.69,1.36,1.36,0,0,1,.31.9" transform="translate(-513.72 -1205.2)"/><path class="cls-9" d="M588.84,1224a1.81,1.81,0,0,1-.68,1.49,2.79,2.79,0,0,1-1.83.55,3.9,3.9,0,0,1-1-.14,2.36,2.36,0,0,1-.75-.29v-1a2.58,2.58,0,0,0,.84.48,2.85,2.85,0,0,0,1,.2c1,0,1.45-.38,1.45-1.14a1.16,1.16,0,0,0-.31-.81,5.58,5.58,0,0,0-1.27-.89,4.64,4.64,0,0,1-1.31-1,1.78,1.78,0,0,1-.37-1.15,1.81,1.81,0,0,1,.67-1.46,2.61,2.61,0,0,1,1.73-.56,3.09,3.09,0,0,1,1.48.27v1A2.38,2.38,0,0,0,587,1219a1.62,1.62,0,0,0-1,.31,1,1,0,0,0-.4.83,1.28,1.28,0,0,0,.12.6,1.62,1.62,0,0,0,.4.45,7.81,7.81,0,0,0,1,.6,5,5,0,0,1,1.4,1,1.8,1.8,0,0,1,.4,1.14m3.57,1.85a1.62,1.62,0,0,1-.81.18c-.94,0-1.42-.53-1.42-1.59v-3.2h-.92v-.73h.92v-1.32l.87-.28v1.6h1.36v.73h-1.36v3a1.26,1.26,0,0,0,.18.77.77.77,0,0,0,.62.23.91.91,0,0,0,.56-.18Zm6-2.66a2.93,2.93,0,0,1-.73,2.06,2.53,2.53,0,0,1-2,.79,2.51,2.51,0,0,1-1.91-.76,2.81,2.81,0,0,1-.72-2,2.93,2.93,0,0,1,.74-2.11,2.64,2.64,0,0,1,2-.78,2.42,2.42,0,0,1,1.88.75,3,3,0,0,1,.68,2.06m-.89,0a2.38,2.38,0,0,0-.45-1.56,1.59,1.59,0,0,0-1.29-.55,1.69,1.69,0,0,0-1.32.56,2.32,2.32,0,0,0-.48,1.57,2.15,2.15,0,0,0,.49,1.51,1.64,1.64,0,0,0,1.31.55,1.58,1.58,0,0,0,1.29-.54,2.34,2.34,0,0,0,.45-1.54m4.61-1.84a1.15,1.15,0,0,0-.66-.17,1.07,1.07,0,0,0-.93.54,2.49,2.49,0,0,0-.36,1.4v2.76h-.87v-5.4h.87v1.11h0a1.87,1.87,0,0,1,.55-.88,1.27,1.27,0,0,1,.86-.33,1.38,1.38,0,0,1,.52.08Zm5.2,2h-3.81a2,2,0,0,0,.49,1.4,1.67,1.67,0,0,0,1.27.48,2.66,2.66,0,0,0,1.67-.59v.81a3.12,3.12,0,0,1-1.87.52,2.25,2.25,0,0,1-1.8-.75,3,3,0,0,1-.65-2.06,3.33,3.33,0,0,1,.32-1.46,2.51,2.51,0,0,1,.89-1,2.35,2.35,0,0,1,1.27-.36,2,2,0,0,1,1.64.68,2.85,2.85,0,0,1,.58,1.91Zm-.88-.73a1.82,1.82,0,0,0-.36-1.16,1.23,1.23,0,0,0-1-.42,1.41,1.41,0,0,0-1,.44,2.1,2.1,0,0,0-.54,1.14Z" transform="translate(-513.72 -1205.2)"/></g></svg>